<?xml version="1.0" encoding="UTF-8" standalone="no"?>
<!-- Created with Inkscape (http://www.inkscape.org/) -->

<svg
   xmlns:dc="http://purl.org/dc/elements/1.1/"
   xmlns:cc="http://creativecommons.org/ns#"
   xmlns:rdf="http://www.w3.org/1999/02/22-rdf-syntax-ns#"
   xmlns:svg="http://www.w3.org/2000/svg"
   xmlns="http://www.w3.org/2000/svg"
   xmlns:xlink="http://www.w3.org/1999/xlink"
   xmlns:sodipodi="http://sodipodi.sourceforge.net/DTD/sodipodi-0.dtd"
   xmlns:inkscape="http://www.inkscape.org/namespaces/inkscape"
   version="1.1"
   id="svg64"
   xml:space="preserve"
   width="389.6149"
   height="120"
   viewBox="0 0 389.61491 120"
   sodipodi:docname="parsesql.ai.svg"
   inkscape:version="0.92.3 (2405546, 2018-03-11)"><metadata
     id="metadata70"><rdf:RDF><cc:Work
         rdf:about=""><dc:format>image/svg+xml</dc:format><dc:type
           rdf:resource="http://purl.org/dc/dcmitype/StillImage" /><dc:title /></cc:Work></rdf:RDF></metadata><defs
     id="defs68"><linearGradient
       inkscape:collect="always"
       id="linearGradient4782"><stop
         style="stop-color:#083b66;stop-opacity:1;"
         offset="0"
         id="stop4778" /><stop
         style="stop-color:#083b66;stop-opacity:0;"
         offset="1"
         id="stop4780" /></linearGradient><linearGradient
       inkscape:collect="always"
       id="linearGradient4774"><stop
         style="stop-color:#083b66;stop-opacity:1;"
         offset="0"
         id="stop4770" /><stop
         style="stop-color:#083b66;stop-opacity:0;"
         offset="1"
         id="stop4772" /></linearGradient><clipPath
       clipPathUnits="userSpaceOnUse"
       id="clipPath80"><path
         d="M 0,82.557 H 200.984 V 0 H 0 Z"
         id="path78"
         inkscape:connector-curvature="0" /></clipPath><linearGradient
       x1="0"
       y1="0"
       x2="1"
       y2="0"
       gradientUnits="userSpaceOnUse"
       gradientTransform="matrix(-23.421122,-0.0765396,-0.0765396,23.421122,62.788982,28.370001)"
       spreadMethod="pad"
       id="linearGradient118"><stop
         style="stop-opacity:1;stop-color:#3f6ec1"
         offset="0"
         id="stop114" /><stop
         style="stop-opacity:1;stop-color:#518df8"
         offset="1"
         id="stop116" /></linearGradient><clipPath
       clipPathUnits="userSpaceOnUse"
       id="clipPath128"><path
         d="M 0,82.557 H 200.984 V 0 H 0 Z"
         id="path126"
         inkscape:connector-curvature="0" /></clipPath><linearGradient
       x1="0"
       y1="0"
       x2="1"
       y2="0"
       gradientUnits="userSpaceOnUse"
       gradientTransform="matrix(27.8186,0,0,27.8186,-22.2965,72.2819)"
       spreadMethod="pad"
       id="linearGradient136"><stop
         style="stop-opacity:1;stop-color:#3f6ec1"
         offset="0"
         id="stop132" /><stop
         style="stop-opacity:1;stop-color:#518df8"
         offset="1"
         id="stop134" /></linearGradient><linearGradient
       inkscape:collect="always"
       xlink:href="#linearGradient4774"
       id="linearGradient4776"
       x1="70.44001"
       y1="-41.263241"
       x2="251.11678"
       y2="-41.263241"
       gradientUnits="userSpaceOnUse" /><linearGradient
       inkscape:collect="always"
       xlink:href="#linearGradient4782"
       id="linearGradient4784"
       x1="70.44001"
       y1="-41.263241"
       x2="251.11678"
       y2="-41.263241"
       gradientUnits="userSpaceOnUse" /></defs><sodipodi:namedview
     pagecolor="#ffffff"
     bordercolor="#666666"
     borderopacity="1"
     objecttolerance="10"
     gridtolerance="10"
     guidetolerance="10"
     inkscape:pageopacity="0"
     inkscape:pageshadow="2"
     inkscape:window-width="1920"
     inkscape:window-height="1017"
     id="namedview66"
     showgrid="false"
     inkscape:snap-text-baseline="false"
     inkscape:zoom="1"
     inkscape:cx="-85.63685"
     inkscape:cy="18.494964"
     inkscape:window-x="1912"
     inkscape:window-y="-8"
     inkscape:window-maximized="1"
     inkscape:current-layer="layer2"
     fit-margin-top="10"
     fit-margin-left="10"
     fit-margin-bottom="10"
     fit-margin-right="10"
     inkscape:object-nodes="false"
     inkscape:snap-others="false"
     inkscape:snap-nodes="false"
     inkscape:snap-global="false"
     inkscape:measure-start="167.875,88.875"
     inkscape:measure-end="147.625,92.125"
     inkscape:snap-to-guides="true"><inkscape:grid
       type="xygrid"
       id="grid58"
       originx="9.9411795"
       originy="6.4322215" /></sodipodi:namedview><g
     id="g72"
     inkscape:groupmode="layer"
     inkscape:label="text"
     transform="matrix(1.3333333,0,0,-1.3333333,9.941178,113.56779)"
     style="display:inline"><text
   xml:space="preserve"
   style="font-style:normal;font-variant:normal;font-weight:normal;font-stretch:normal;font-size:41.80900955px;line-height:1.25;font-family:'Copperplate Gothic Bold';-inkscape-font-specification:'Copperplate Gothic Bold, ';letter-spacing:0px;word-spacing:0px;fill:#083b66;fill-opacity:1;stroke:#083b66;stroke-width:0.99590069;stroke-opacity:1"
   x="77.7127"
   y="-26.725588"
   id="text158"
   transform="scale(1.0477021,-0.95446982)"><tspan
     sodipodi:role="line"
     id="tspan156"
     x="77.7127"
     y="-26.725588"
     style="font-style:normal;font-variant:normal;font-weight:normal;font-stretch:normal;font-size:30.8327198px;font-family:'Copperplate Gothic Bold';-inkscape-font-specification:'Copperplate Gothic Bold, ';fill:#083b66;fill-opacity:1;stroke:#083b66;stroke-width:0.99590069;stroke-opacity:1">ParseSql</tspan></text>


<text
   xml:space="preserve"
   style="font-style:normal;font-weight:normal;font-size:30px;line-height:1.25;font-family:sans-serif;letter-spacing:0px;word-spacing:0px;fill:#000000;fill-opacity:1;stroke:none;stroke-width:0.75"
   x="165"
   y="-4.3508367e-006"
   id="text62"
   transform="scale(1,-1)"><tspan
     sodipodi:role="line"
     id="tspan60"
     x="165"
     y="27.369905"
     style="stroke-width:0.75" /><tspan
     sodipodi:role="line"
     x="165"
     y="64.869904"
     style="stroke-width:0.75"
     id="tspan64" /></text>


</g><g
     inkscape:groupmode="layer"
     id="layer2"
     inkscape:label="logo"
     style="display:inline"><circle
       style="display:inline;opacity:1;fill:#083b66;fill-opacity:1;stroke:#000000;stroke-width:6.99499989;stroke-miterlimit:4;stroke-dasharray:none;stroke-opacity:1"
       id="path6943"
       cx="-1.4808857"
       cy="84.83989"
       r="46.502533"
       transform="rotate(-46)" /><g
       id="g10876"
       transform="matrix(0.93966089,0,0,0.93966089,4.2505016,4.6317845)"
       style="stroke:#ffa500;stroke-opacity:1"><rect
         y="29.565628"
         x="35.323673"
         height="61.247868"
         width="49.170822"
         id="rect6981"
         style="display:inline;opacity:1;fill:none;fill-opacity:1;stroke:#ffa500;stroke-width:5.04412985;stroke-miterlimit:4;stroke-dasharray:none;stroke-opacity:1" /><path
         style="display:inline;fill:none;stroke:#ffa500;stroke-width:5.04412985;stroke-linecap:butt;stroke-linejoin:miter;stroke-miterlimit:4;stroke-dasharray:none;stroke-opacity:1"
         d="m 45.662939,66.188285 29.114303,-2e-6 z"
         id="path7033"
         inkscape:connector-curvature="0" /><path
         inkscape:transform-center-y="-6.0104078"
         style="display:inline;fill:none;stroke:#ffa500;stroke-width:5.04412985;stroke-linecap:butt;stroke-linejoin:miter;stroke-miterlimit:4;stroke-dasharray:none;stroke-opacity:1"
         d="m 45.75772,78.031083 29.114303,-10e-7 z"
         id="path7037"
         inkscape:connector-curvature="0" /><path
         inkscape:connector-curvature="0"
         id="path7039"
         d="m 45.891085,44.446269 29.114303,-10e-7 z"
         style="display:inline;fill:none;stroke:#ffa500;stroke-width:5.04412985;stroke-linecap:butt;stroke-linejoin:miter;stroke-miterlimit:4;stroke-dasharray:none;stroke-opacity:1" /><path
         style="display:inline;fill:none;stroke:#ffa500;stroke-width:5.04412985;stroke-linecap:butt;stroke-linejoin:miter;stroke-miterlimit:4;stroke-dasharray:none;stroke-opacity:1"
         d="m 45.891086,55.229345 29.114303,-1e-6 z"
         id="path7029"
         inkscape:connector-curvature="0" /></g></g><g
     inkscape:groupmode="layer"
     id="layer1"
     inkscape:label="powershell"
     style="display:inline"><g
       id="g104"
       transform="matrix(1.797363,0,0,-1.797363,-6.7112942,142.24756)"><g
         id="g110"><g
           id="g112"><path
             inkscape:connector-curvature="0"
             id="path120"
             style="fill:url(#linearGradient118);stroke:none"
             d="m 42.94,38.607 c -0.581,0 -1.086,-0.396 -1.226,-0.96 v 0 L 37.268,19.622 c -0.196,-0.796 0.406,-1.565 1.226,-1.565 v 0 h 20.919 c 0.588,0 1.099,0.406 1.23,0.98 v 0 l 4.144,18.025 c 0.182,0.791 -0.419,1.545 -1.231,1.545 v 0 z" /></g></g></g><g
       clip-path="url(#clipPath128)"
       id="g124"
       transform="matrix(1.797363,0,0,-1.797363,-6.7112938,142.24756)"><g
         transform="translate(59.4125,18.0566)"
         id="g130"><path
           inkscape:connector-curvature="0"
           id="path138"
           style="fill:none;stroke:url(#linearGradient136);stroke-width:0.23;stroke-linecap:butt;stroke-linejoin:miter;stroke-miterlimit:10;stroke-dasharray:none;stroke-opacity:1"
           d="m 0,0 h -20.918 c -0.82,0 -1.423,0.769 -1.226,1.565 l 4.446,18.025 c 0.139,0.564 0.645,0.961 1.226,0.961 H 4.144 c 0.812,0 1.412,-0.755 1.231,-1.546 L 1.231,0.98 C 1.099,0.406 0.588,0 0,0 Z" /></g><g
         transform="translate(43.7419,20.147)"
         id="g140"><path
           inkscape:connector-curvature="0"
           id="path142"
           style="fill:#3462a8;fill-opacity:1;fill-rule:nonzero;stroke:none"
           d="m 0,0 c -0.391,0 -0.776,0.181 -1.023,0.521 -0.41,0.565 -0.284,1.355 0.28,1.764 l 8.26,5.994 -5.085,5.471 c -0.475,0.511 -0.446,1.31 0.065,1.785 0.511,0.474 1.31,0.445 1.785,-0.066 L 10.338,8.954 C 10.584,8.689 10.705,8.332 10.67,7.972 10.635,7.612 10.448,7.284 10.155,7.072 L 0.741,0.241 C 0.517,0.078 0.257,0 0,0" /></g><g
         transform="translate(43.5123,20.3958)"
         id="g144"><path
           inkscape:connector-curvature="0"
           id="path146"
           style="fill:#ffffff;fill-opacity:1;fill-rule:nonzero;stroke:none"
           d="m 0,0 c -0.391,0 -0.776,0.181 -1.023,0.521 -0.41,0.565 -0.284,1.355 0.28,1.764 l 8.26,5.994 -5.085,5.471 c -0.475,0.511 -0.446,1.31 0.065,1.785 0.511,0.474 1.31,0.445 1.785,-0.066 L 10.338,8.954 C 10.584,8.689 10.705,8.332 10.67,7.972 10.635,7.612 10.448,7.284 10.155,7.072 L 0.741,0.241 C 0.517,0.078 0.257,0 0,0" /></g><g
         transform="translate(56.0196,20.6557)"
         id="g148"><path
           inkscape:connector-curvature="0"
           id="path150"
           style="fill:#3462a8;fill-opacity:1;fill-rule:nonzero;stroke:none"
           d="m 0,0 h -4.958 c -0.602,0 -1.091,0.488 -1.091,1.091 0,0.602 0.489,1.09 1.091,1.09 H 0 c 0.602,0 1.091,-0.488 1.091,-1.09 C 1.091,0.488 0.602,0 0,0" /></g><g
         transform="translate(55.8282,20.8662)"
         id="g152"><path
           inkscape:connector-curvature="0"
           id="path154"
           style="fill:#ffffff;fill-opacity:1;fill-rule:nonzero;stroke:none"
           d="m 0,0 h -4.958 c -0.602,0 -1.091,0.488 -1.091,1.091 0,0.602 0.489,1.09 1.091,1.09 H 0 c 0.602,0 1.091,-0.488 1.091,-1.09 C 1.091,0.488 0.602,0 0,0" /></g></g></g></svg>